<?xml version="1.0" encoding="UTF-8" standalone="no"?>
<!-- Created with Inkscape (http://www.inkscape.org/) -->

<svg
   width="1920"
   height="537"
   viewBox="0 0 508 142.08214"
   version="1.1"
   id="svg4618"
   inkscape:version="1.1.2 (b8e25be833, 2022-02-05)"
   sodipodi:docname="InflaflixLogoFull.svg"
   xmlns:inkscape="http://www.inkscape.org/namespaces/inkscape"
   xmlns:sodipodi="http://sodipodi.sourceforge.net/DTD/sodipodi-0.dtd"
   xmlns="http://www.w3.org/2000/svg"
   xmlns:svg="http://www.w3.org/2000/svg">
  <sodipodi:namedview
     id="namedview4620"
     pagecolor="#ffffff"
     bordercolor="#666666"
     borderopacity="1.0"
     inkscape:pageshadow="2"
     inkscape:pageopacity="0.0"
     inkscape:pagecheckerboard="0"
     inkscape:document-units="px"
     showgrid="false"
     units="px"
     inkscape:zoom="0.77771465"
     inkscape:cx="850.56904"
     inkscape:cy="434.60671"
     inkscape:window-width="2560"
     inkscape:window-height="1377"
     inkscape:window-x="-8"
     inkscape:window-y="32"
     inkscape:window-maximized="1"
     inkscape:current-layer="layer1">
    <sodipodi:guide
       position="234.18373,90.915343"
       orientation="0,1920"
       id="guide41533" />
    <sodipodi:guide
       position="508,211.6676"
       orientation="800,0"
       id="guide41535" />
    <sodipodi:guide
       position="51.392816,69.640995"
       orientation="0,-1920"
       id="guide41537" />
    <sodipodi:guide
       position="0,0"
       orientation="-800,0"
       id="guide41539" />
  </sodipodi:namedview>
  <defs
     id="defs4615">
    <inkscape:path-effect
       effect="powerclip"
       id="path-effect43655"
       is_visible="true"
       lpeversion="1"
       inverse="true"
       flatten="false"
       hide_clip="false"
       message="Füllregel Gerade-Ungerade im &lt;b&gt;Füllung und Kontur&lt;/b&gt;-Dialog verwenden, wenn das Anwenden des Ausschnitts mit nachfolgendem Umwandeln in Pfade kein Ergebnis bringt" />
    <rect
       x="185.15788"
       y="366.45831"
       width="362.03525"
       height="78.151466"
       id="rect7079" />
    <clipPath
       clipPathUnits="userSpaceOnUse"
       id="clipPath43651">
      <path
         style="display:none;fill:#00ff00;stroke:#ffffff;stroke-opacity:0"
         id="path43653"
         sodipodi:type="arc"
         sodipodi:cx="367.85205"
         sodipodi:cy="434.00186"
         sodipodi:rx="236.27254"
         sodipodi:ry="13.442572"
         sodipodi:start="0"
         sodipodi:end="6.2778271"
         sodipodi:arc-type="slice"
         d="M 604.12459,434.00186 A 236.27254,13.442572 0 0 1 368.16855,447.44442 236.27254,13.442572 0 0 1 131.58036,434.03788 236.27254,13.442572 0 0 1 366.90256,420.5594 236.27254,13.442572 0 0 1 604.1212,433.92983 l -236.26915,0.072 z" />
      <path
         id="lpe_path-effect43655"
         style="fill:#00ff00;stroke:#ffffff;stroke-opacity:0"
         class="powerclip"
         d="m 183.8062,375.48097 h 365.52006 v 54.8 H 183.8062 Z m 420.31839,58.52089 H 367.85205 l 236.26915,-0.072 a 236.27254,13.442572 0 0 0 -237.21864,-13.37043 236.27254,13.442572 0 0 0 -235.3222,13.47848 236.27254,13.442572 0 0 0 236.58819,13.40654 236.27254,13.442572 0 0 0 235.95604,-13.44256 z" />
    </clipPath>
  </defs>
  <g
     inkscape:label="Ebene 1"
     inkscape:groupmode="layer"
     id="layer1">
    <g
       aria-label="INFLAFLIX"
       transform="matrix(1.4288989,0,0,3.1702376,-269.7861,-1206.2151)"
       id="text7077"
       style="font-weight:900;font-size:64px;line-height:1.25;font-family:Montserrat;-inkscape-font-specification:'Montserrat Heavy';white-space:pre;shape-inside:url(#rect7079);fill:#ff0000;fill-opacity:1"
       clip-path="url(#clipPath43651)"
       inkscape:path-effect="#path-effect43655"
       inkscape:export-filename="C:\Users\Julius\Desktop\inflaflix.png"
       inkscape:export-xdpi="96"
       inkscape:export-ydpi="96">
      <path
         d="m 188.8062,425.28097 v -44.8 h 15.104 v 44.8 z"
         id="path32097"
         inkscape:original-d="m 188.8062,425.28097 v -44.8 h 15.104 v 44.8 z"
         style="fill:#ff0000;fill-opacity:1" />
      <path
         d="m 211.20623,425.28097 v -44.8 h 12.416 l 22.784,27.264 h -5.76 v -27.264 h 14.72 v 44.8 h -12.416 l -22.784,-27.264 h 5.76 v 27.264 z"
         id="path32099"
         inkscape:original-d="m 211.20623,425.28097 v -44.8 h 12.416 l 22.784,27.264 h -5.76 v -27.264 h 14.72 v 44.8 h -12.416 l -22.784,-27.264 h 5.76 v 27.264 z"
         style="fill:#ff0000;fill-opacity:1" />
      <path
         d="m 276.74228,399.55297 h 19.712 v 6.77753 h -19.712 z m 1.024,25.728 h -15.104 v -44.8 h 36.416 v 7.3141 h -21.312 z"
         id="path32101"
         inkscape:original-d="m 276.74228,399.55297 h 19.712 l 0,6.77753 h -19.712 z m 1.024,25.728 h -15.104 v -44.8 h 36.416 l 0,7.3141 h -21.312 z"
         sodipodi:nodetypes="cccccccccccc"
         style="fill:#ff0000;fill-opacity:1" />
      <path
         d="m 303.87822,425.28097 v -44.8 h 15.104 v 33.088 l 20.224,-0.32194 v 12.03394 z"
         id="path32103"
         inkscape:original-d="m 303.87822,425.28097 v -44.8 h 15.104 v 33.088 l 20.224,-0.32194 v 12.03394 z"
         sodipodi:nodetypes="ccccccc"
         style="fill:#ff0000;fill-opacity:1" />
      <path
         d="m 339.14228,425.28097 19.584,-44.8 h 14.848 l 19.584,44.8 h -15.616 l -14.464,-37.632 h 5.888 l -14.464,37.632 z m 11.648,-12.95903 3.84,-5.72897 h 20.608 l 3.84,5.72897 z"
         id="path32105"
         inkscape:original-d="m 339.14228,425.28097 19.584,-44.8 h 14.848 l 19.584,44.8 h -15.616 l -14.464,-37.632 h 5.888 l -14.464,37.632 z m 11.648,-12.95903 3.84,-5.72897 h 20.608 l 3.84,5.72897 z"
         sodipodi:nodetypes="cccccccccccccc"
         style="fill:#ff0000;fill-opacity:1" />
      <path
         d="m 409.67026,399.55297 h 19.712 v 6.56291 h -19.712 z m 1.024,25.728 h -15.104 v -44.8 h 36.416 v 7.09947 h -21.312 z"
         id="path32107"
         inkscape:original-d="m 409.67026,399.55297 h 19.712 l 0,6.56291 h -19.712 z m 1.024,25.728 h -15.104 v -44.8 h 36.416 l 0,7.09947 h -21.312 z"
         sodipodi:nodetypes="cccccccccccc"
         style="fill:#ff0000;fill-opacity:1" />
      <path
         d="m 436.8062,425.28097 v -44.8 h 15.104 v 33.088 l 20.224,0.85851 v 10.85349 z"
         id="path32109"
         inkscape:original-d="m 436.8062,425.28097 v -44.8 h 15.104 v 33.088 l 20.224,0.85851 v 10.85349 z"
         sodipodi:nodetypes="ccccccc"
         style="fill:#ff0000;fill-opacity:1" />
      <path
         d="m 476.29424,425.28097 v -44.8 h 15.104 v 44.8 z"
         id="path32111"
         inkscape:original-d="m 476.29424,425.28097 v -44.8 h 15.104 v 44.8 z"
         style="fill:#ff0000;fill-opacity:1" />
      <path
         d="m 494.53426,425.28097 19.968,-27.904 -0.064,10.56 -19.328,-27.456 h 16.96 l 11.264,16.64 -7.232,0.064 11.008,-16.704 h 16.256 l -19.328,26.88 v -10.496 l 20.288,28.416 h -17.28 l -11.264,-17.408 6.976,-0.064 -11.008,17.472 z"
         id="path32113"
         inkscape:original-d="m 494.53426,425.28097 19.968,-27.904 -0.064,10.56 -19.328,-27.456 h 16.96 l 11.264,16.64 -7.232,0.064 11.008,-16.704 h 16.256 l -19.328,26.88 v -10.496 l 20.288,28.416 h -17.28 l -11.264,-17.408 6.976,-0.064 -11.008,17.472 z"
         style="fill:#ff0000;fill-opacity:1" />
    </g>
  </g>
</svg>
